<svg xmlns="http://www.w3.org/2000/svg" width="1163" height="1371" fill="none"><path fill="#fff" fill-opacity=".23" d="M296.656 699.006c5.417-7.142 16.77-4.1 17.89 4.793l.332 2.638c.114.905.351 1.79.705 2.63l1.031 2.451c3.477 8.261-4.834 16.573-13.096 13.096l-2.451-1.032a9.984 9.984 0 0 0-2.63-.704l-2.637-.333c-8.894-1.119-11.936-12.473-4.794-17.889l2.119-1.607a10 10 0 0 0 1.925-1.925l1.606-2.118Z"/><path fill="#fff" fill-opacity=".34" d="M251.472 566.915c4.172-7.486 15.579-4.43 15.449 4.14-.078 5.145 4.522 9.104 9.598 8.26 8.455-1.406 13.177 9.418 6.396 14.659-4.071 3.147-4.298 9.213-.473 12.655 6.37 5.733.852 16.174-7.474 14.14-4.998-1.221-9.882 2.384-10.189 7.52-.51 8.555-12.114 10.751-15.715 2.974-2.162-4.67-8.025-6.241-12.232-3.278-7.007 4.935-15.958-2.768-12.123-10.433 2.303-4.601-.124-10.165-5.064-11.606-8.227-2.402-7.785-14.203.598-15.983 5.034-1.069 7.87-6.435 5.917-11.196-3.252-7.93 6.251-14.943 12.869-9.498 3.974 3.269 9.938 2.141 12.443-2.354Z"/><path fill="#fff" fill-opacity=".23" d="M923.794 767.911c10.105-3.034 17.412 9.622 9.732 16.857l-6.316 5.95a10 10 0 0 0-2.875 4.98l-1.995 8.445c-2.425 10.268-17.039 10.268-19.464 0l-1.995-8.445a10 10 0 0 0-2.875-4.98l-6.316-5.95c-7.681-7.235-.374-19.891 9.732-16.857l8.311 2.495a9.982 9.982 0 0 0 5.75 0l8.311-2.495Z"/><path stroke="#fff" stroke-opacity=".24" stroke-width="3" d="M899.989 1115.99c-33.568 40.59-82.844 64-140.42 73.32-57.564 9.31-123.306 4.5-189.647-11.2-132.72-31.4-267.526-106.33-343.768-198.529-76.398-92.386-117.571-178.096-122.92-260.928-5.345-82.758 25.05-163.059 92.588-244.731 67.558-81.696 164.892-155.817 264.36-186.431 99.448-30.609 200.83-17.693 276.876 74.267 76.328 92.301 150.804 240.271 189.28 385.585 19.235 72.65 29.449 144.55 26.437 208.436-3.012 63.881-19.236 119.641-52.786 160.211Z"/><path stroke="#fff" stroke-opacity=".24" stroke-width="3" d="M322.411 1162.44c-88.63-61.88-128.96-181.236-130.558-320.03-1.597-138.754 35.545-296.541 101.454-434.589C359.26 269.68 427.273 181.959 500.896 144.238c73.503-37.661 152.829-25.594 241.802 36.525 89.039 62.164 178.058 167.711 228.343 292.147 50.259 124.384 61.819 267.597-3.944 405.334-65.83 137.886-182.573 240.016-305.16 292.116-122.639 52.12-250.789 54.03-339.526-7.92Z"/></svg>