<svg width="631" height="70" viewBox="0 0 631 70" fill="none" xmlns="http://www.w3.org/2000/svg">
<path d="M336.5 -22.6621H631V69.3379H267L336.5 -22.6621ZM305.65 -38.2361L320.02 -27.4361L247.75 68.7539H219.5L305.65 -38.2361Z" fill="#DDDDDD"/>
<path d="M217.65 -38.2361L232.02 -27.4361L159.746 68.7539H131.5L217.65 -38.2361ZM129.645 -38.2361L144.02 -27.4361L71.746 68.7539H43.5L129.645 -38.2361Z" fill="#0093DA"/>
<path d="M262.15 -38.2361L276.52 -27.4361L204.25 68.7539H176L262.15 -38.2361Z" fill="#DDDDDD"/>
<path d="M174.145 -38.2361L188.52 -27.4361L116.246 68.7539H88L174.145 -38.2361ZM86.145 -38.2361L100.52 -27.4361L28.246 68.7539H0L86.145 -38.2361Z" fill="#0093DA"/>
</svg>
