<svg xmlns="http://www.w3.org/2000/svg" width="1440" height="83" fill="none"><path fill="#DDD" d="M1145.5-22.662H1440v92h-364l69.5-92ZM1114.65-38.236l14.37 10.8-72.27 96.19h-28.25l86.15-106.99Z"/><path fill="#0093DA" d="m1026.65-38.236 14.37 10.8-72.274 96.19H940.5l86.15-106.99ZM938.645-38.236l14.375 10.8-72.274 96.19H852.5l86.145-106.99Z"/><path fill="#DDD" d="m1071.15-38.236 14.37 10.8-72.27 96.19H985l86.15-106.99Z"/><path fill="#0093DA" d="m983.145-38.236 14.375 10.8-72.274 96.19H897l86.145-106.99ZM895.145-38.236l14.375 10.8-72.274 96.19H809l86.145-106.99Z"/></svg>