<svg xmlns="http://www.w3.org/2000/svg" width="724" height="364" fill="none"><path fill="#fff" fill-opacity=".23" d="M83.655 239.006c5.417-7.142 16.77-4.1 17.89 4.793l.332 2.638c.114.905.351 1.79.705 2.63l1.031 2.451c3.477 8.261-4.834 16.573-13.096 13.096l-2.45-1.032a9.984 9.984 0 0 0-2.63-.704l-2.638-.333c-8.894-1.119-11.936-12.473-4.794-17.889l2.12-1.607a10 10 0 0 0 1.924-1.925l1.606-2.118Z"/><path fill="#fff" fill-opacity=".34" d="M38.472 106.915c4.172-7.486 15.579-4.43 15.449 4.14-.078 5.145 4.522 9.104 9.598 8.26 8.455-1.406 13.177 9.418 6.396 14.659-4.071 3.147-4.298 9.213-.473 12.655 6.37 5.733.852 16.174-7.474 14.14-4.999-1.221-9.882 2.384-10.189 7.52-.51 8.555-12.114 10.751-15.715 2.974-2.162-4.67-8.025-6.241-12.232-3.278-7.007 4.935-15.958-2.768-12.123-10.433 2.303-4.601-.124-10.165-5.064-11.606-8.227-2.402-7.785-14.203.598-15.983 5.034-1.069 7.87-6.435 5.917-11.196-3.252-7.93 6.25-14.943 12.87-9.498 3.973 3.269 9.937 2.141 12.442-2.354Z"/><path fill="#fff" fill-opacity=".23" d="M710.794 307.911c10.105-3.034 17.412 9.622 9.732 16.857l-6.316 5.95a10 10 0 0 0-2.875 4.98l-1.995 8.445c-2.425 10.268-17.039 10.268-19.464 0l-1.995-8.445a10 10 0 0 0-2.875-4.98l-6.316-5.95c-7.681-7.235-.374-19.891 9.732-16.857l8.311 2.495a9.982 9.982 0 0 0 5.75 0l8.311-2.495Z"/><path stroke="#fff" stroke-opacity=".24" stroke-width="3" d="M524.194 331.252c-15.531 13.35-38.397 21.102-65.264 24.191-26.853 3.087-57.56 1.497-88.584-3.721-62.093-10.444-125.085-35.355-160.645-65.921-35.745-30.725-54.857-59.105-57.338-86.413-2.475-27.246 11.579-53.776 43.119-80.886 31.565-27.13 77.042-51.74 123.475-61.899 46.408-10.153 93.534-5.838 128.86 24.526 35.662 30.653 70.497 79.838 88.489 128.139 8.994 24.145 13.752 47.995 12.349 69.147-1.402 21.146-8.951 39.506-24.461 52.837Z"/><path stroke="#fff" stroke-opacity=".24" stroke-width="3" d="M254.67 346.527c-41.255-20.473-60.058-59.963-60.803-105.987-.746-46.031 16.594-98.421 47.394-144.275 30.861-45.946 62.574-74.946 96.754-87.394C372.107-3.545 409.021.38 450.62 21.024c41.636 20.662 83.249 55.742 106.738 97.059 23.474 41.289 28.786 88.657-1.781 134.165-30.678 45.671-85.143 79.574-142.432 96.88-57.316 17.314-117.123 17.92-158.475-2.601Z"/></svg>