<svg xmlns="http://www.w3.org/2000/svg" width="878" height="725" fill="none"><path fill="#fff" d="M729.5 568c-105.511 105.511-427.422 71.469-536.271-37.379C84.381 421.773 142.989 265.511 248.5 160 354.011 54.49 512.166 4 610.889 102.723 719.737 211.571 835.011 462.489 729.5 568Z"/><path stroke="#fff" stroke-width="3" d="M626.613 535.056c-62.151 62.152-166.096 87.746-267.187 85.241-101.112-2.506-198.788-33.106-248.363-82.681-49.774-49.774-72.519-99.872-67.481-152.943 5.044-53.153 37.985-109.656 100.453-172.124 62.473-62.473 153.284-132.072 240.894-173.56 43.809-20.747 86.725-34.42 124.843-36.717 38.092-2.295 71.275 6.77 95.869 31.365 49.63 49.63 86.077 143.843 94.452 241.389 8.375 97.545-11.362 197.912-73.48 260.03Z"/><path stroke="#fff" stroke-width="3" d="M503.301 61.119c78.237 1.106 160.467 50.401 223.438 114.949 62.992 64.57 106.306 143.981 107.167 204.852.864 61.154-15.714 105.625-51.838 134.594-36.194 29.025-92.282 42.715-170.958 41.603-78.681-1.113-179.878-15.581-261.569-45.08-40.85-14.75-76.724-33.225-102.466-55.588-25.724-22.347-41.235-48.483-41.661-78.639-.862-60.95 34.349-140.718 89.574-205.026C350.207 108.482 425.11 60.013 503.301 61.119Z"/><path fill="#fff" d="M791.891 232.606c5.599 3.069 3.425 11.603-2.886 11.325l-12.902-.567a5.814 5.814 0 0 0-3.286.841l-11.18 6.809c-5.331 3.247-11.512-3.076-8.247-8.437l6.712-11.021c.616-1.01.916-2.19.863-3.388l-.575-13.069c-.279-6.357 8.082-8.593 11.157-2.983l6.449 11.763a6.18 6.18 0 0 0 2.447 2.452l11.448 6.275Z"/><path fill="#fff" fill-opacity=".23" d="M619.937 86.172c5.417-7.142 16.77-4.1 17.89 4.793l1.825 14.495c.113.905.351 1.789.704 2.63l5.667 13.465c3.477 8.262-4.834 16.573-13.096 13.096l-13.465-5.667a10.033 10.033 0 0 0-2.63-.704l-14.495-1.825c-8.893-1.12-11.936-12.473-4.793-17.89l11.64-8.828a10 10 0 0 0 1.925-1.925l8.828-11.64ZM174.526 129.074c7.68 7.235.373 19.891-9.732 16.857l-8.311-2.495a10.002 10.002 0 0 0-5.751 0l-8.31 2.495c-10.106 3.034-17.413-9.622-9.733-16.857l6.317-5.95a9.997 9.997 0 0 0 2.875-4.98l1.995-8.445c2.425-10.268 17.039-10.268 19.464 0l1.995 8.445a9.997 9.997 0 0 0 2.875 4.98l6.316 5.95Z"/></svg>