<svg xmlns="http://www.w3.org/2000/svg" width="778" height="662" fill="none"><path fill="#fff" d="M680.286 472.575c-68.5 120.962-365.986 170.427-490.773 99.759C64.725 501.667 78.498 346.8 146.998 225.839 215.499 104.877 344.944 20.228 458.123 84.321c124.788 70.668 290.664 267.292 222.163 388.254Z"/><path stroke="#fff" stroke-width="3" d="M556.628 523.78c-54.54 54.54-145.78 77.017-234.549 74.817-88.791-2.2-174.529-29.073-218.026-72.569-43.694-43.695-63.636-87.648-59.22-134.191 4.426-46.624 33.325-96.216 88.182-151.073 54.861-54.861 134.608-115.98 211.538-152.41 38.468-18.218 76.139-30.218 109.588-32.233 33.423-2.014 62.511 5.941 84.067 27.496 43.551 43.552 75.555 126.256 82.909 211.91 7.354 85.654-9.982 173.746-64.489 228.253Z"/><path stroke="#fff" stroke-width="3" d="M370.474 64.508c82.579 1.167 169.359 53.196 235.807 121.308 66.47 68.134 112.186 151.94 113.095 216.196.912 64.539-16.583 111.488-54.722 142.073-38.21 30.642-97.411 45.087-180.43 43.913-83.022-1.174-189.804-16.441-276.007-47.568-43.105-15.566-80.966-35.062-108.138-58.667-27.153-23.589-43.535-51.187-43.986-83.034-.91-64.336 36.254-148.516 94.529-216.376C208.891 114.5 287.941 63.34 370.474 64.508Z"/><path fill="#fff" d="M670.431 272.174c5.599 3.069 3.425 11.603-2.885 11.325l-6.22-.273a5.823 5.823 0 0 0-3.286.84l-5.544 3.377c-5.332 3.248-11.513-3.075-8.248-8.436l3.281-5.386c.615-1.01.915-2.19.863-3.388l-.281-6.386c-.28-6.357 8.082-8.593 11.157-2.984l3.197 5.834a6.193 6.193 0 0 0 2.447 2.452l5.519 3.025Z"/><path fill="#fff" fill-opacity=".34" d="M685.682 508.877c5.059-9.079 18.892-5.372 18.734 5.02l-.07 4.686c-.095 6.238 5.483 11.04 11.638 10.016l4.623-.769c10.253-1.705 15.98 11.421 7.757 17.777l-3.708 2.866c-4.937 3.816-5.213 11.171-.575 15.345l3.484 3.135c7.725 6.953 1.033 19.614-9.063 17.148l-4.552-1.113c-6.061-1.48-11.985 2.891-12.356 9.119l-.279 4.678c-.619 10.375-14.691 13.037-19.057 3.606l-1.969-4.253c-2.622-5.662-9.732-7.567-14.833-3.974l-3.831 2.698c-8.498 5.985-19.353-3.357-14.701-12.651l2.097-4.191c2.792-5.58-.151-12.326-6.141-14.074l-4.498-1.314c-9.977-2.912-9.442-17.223.725-19.381l4.585-.973c6.104-1.296 9.542-7.804 7.174-13.577l-1.778-4.336c-3.944-9.616 7.579-18.12 15.605-11.517l3.619 2.977c4.819 3.965 12.051 2.596 15.089-2.854l2.281-4.094Z"/><path fill="#fff" fill-opacity=".23" d="M119.171 142.876c7.68 7.234.373 19.89-9.733 16.857l-24.998-7.505a9.999 9.999 0 0 0-5.75 0l-24.998 7.505c-10.106 3.033-17.413-9.623-9.733-16.857l19-17.897a9.997 9.997 0 0 0 2.874-4.98l6-25.401c2.425-10.269 17.04-10.269 19.464 0l6 25.401a9.999 9.999 0 0 0 2.875 4.98l18.999 17.897Z"/></svg>