<svg xmlns="http://www.w3.org/2000/svg" width="855" height="638" fill="none"><path fill="#fff" fill-opacity=".23" d="M179.535 583.403c7.68 7.235.373 19.891-9.732 16.857l-24.998-7.505a10.002 10.002 0 0 0-5.751 0l-24.998 7.505c-10.106 3.034-17.413-9.622-9.732-16.857l18.998-17.896a9.996 9.996 0 0 0 2.875-4.981l6-25.401c2.425-10.269 17.039-10.269 19.464 0l6 25.401a10.004 10.004 0 0 0 2.875 4.981l18.999 17.896Z"/><path fill="#fff" d="M723.793 313.905c-16.044 138.082-270.849 299.386-413.298 282.834-142.45-16.551-190.013-164.576-173.969-302.658C152.57 155.999 238.885 27.659 368.083 42.671c142.45 16.551 371.754 133.152 355.71 271.234Z"/><path stroke="#fff" stroke-width="3" d="M582.993 481.78c-54.541 54.54-145.781 77.017-234.55 74.817-88.791-2.2-174.529-29.073-218.025-72.569-43.695-43.695-63.637-87.648-59.22-134.191 4.426-46.624 33.324-96.216 88.181-151.073 54.861-54.861 134.608-115.98 211.538-152.41 38.468-18.218 76.139-30.217 109.588-32.233 33.423-2.013 62.512 5.941 84.067 27.497 43.551 43.55 75.555 126.255 82.909 211.909 7.354 85.654-9.981 173.746-64.488 228.253Z"/><path stroke="#fff" stroke-width="3" d="M396.837 22.508c82.579 1.168 169.359 53.196 235.808 121.308 66.469 68.134 112.186 151.94 113.095 216.196.913 64.539-16.584 111.488-54.723 142.073-38.21 30.642-97.411 45.087-180.429 43.913-83.023-1.174-189.805-16.441-276.007-47.568-43.106-15.566-80.967-35.062-108.139-58.667-27.153-23.589-43.535-51.186-43.986-83.034-.91-64.336 36.254-148.516 94.529-216.376C235.254 72.5 314.304 21.341 396.837 22.508Z"/><path fill="#99DEF9" fill-opacity=".42" d="M197.987 407.907c5.416-7.143 16.77-4.1 17.889 4.793l.935 7.423c.114.905.351 1.79.705 2.63l2.902 6.896c3.477 8.262-4.834 16.573-13.096 13.096l-6.896-2.902a10.006 10.006 0 0 0-2.63-.705l-7.423-.934c-8.894-1.12-11.936-12.473-4.794-17.89l5.962-4.521a10 10 0 0 0 1.925-1.925l4.521-5.961Z"/><path fill="#fff" fill-opacity=".34" d="M712.047 466.877c5.059-9.079 18.892-5.372 18.734 5.02l-.071 4.686c-.095 6.238 5.484 11.04 11.64 10.016l4.623-.769c10.252-1.705 15.979 11.421 7.755 17.777l-3.708 2.866c-4.937 3.816-5.212 11.171-.574 15.345l3.484 3.135c7.725 6.953 1.033 19.614-9.063 17.148l-4.552-1.113c-6.062-1.48-11.984 2.891-12.356 9.119l-.279 4.678c-.619 10.375-14.69 13.037-19.057 3.606l-1.969-4.253c-2.621-5.662-9.731-7.567-14.833-3.974l-3.831 2.698c-8.497 5.985-19.352-3.357-14.701-12.651l2.097-4.191c2.793-5.58-.151-12.326-6.14-14.074l-4.499-1.314c-9.977-2.912-9.441-17.223.725-19.381l4.584-.973c6.104-1.296 9.543-7.804 7.176-13.577l-1.779-4.336c-3.943-9.616 7.579-18.12 15.606-11.517l3.619 2.977c4.818 3.965 12.051 2.596 15.088-2.854l2.281-4.094Z"/><path fill="#fff" fill-opacity=".23" d="M841.09 274.726c10.11-3.034 17.41 9.622 9.73 16.856l-19 17.897a10.03 10.03 0 0 0-2.87 4.98l-6 25.402c-2.43 10.268-17.041 10.268-19.466 0l-6-25.402a10 10 0 0 0-2.875-4.98l-18.998-17.897c-7.681-7.234-.374-19.89 9.732-16.856l24.998 7.505a9.995 9.995 0 0 0 5.749 0l25-7.505ZM143.68 56.876c7.68 7.234.374 19.89-9.732 16.856l-24.998-7.505a10 10 0 0 0-5.751 0l-24.998 7.505C68.096 76.766 60.79 64.11 68.47 56.876l19-17.897A10.002 10.002 0 0 0 90.342 34l6-25.402c2.425-10.268 17.039-10.268 19.464 0L121.806 34a10.004 10.004 0 0 0 2.876 4.98l18.998 17.897Z"/></svg>