<svg xmlns="http://www.w3.org/2000/svg" width="741" height="527" fill="none"><path fill="#fff" d="M643.947 271.782C629.539 395.776 400.731 540.623 272.815 525.76S102.189 377.975 116.596 253.981c14.407-123.994 91.916-239.241 207.932-225.76 127.916 14.862 333.826 119.567 319.419 243.561Z"/><path stroke="#fff" stroke-width="3" d="M517.403 422.421c-48.933 48.933-130.815 69.114-210.508 67.14-79.713-1.976-156.657-26.103-195.676-65.121-39.217-39.217-57.094-78.644-53.133-120.377 3.97-41.816 29.89-86.317 79.139-135.566 49.255-49.255 120.852-104.126 189.914-136.83 34.534-16.355 68.342-27.122 98.35-28.93 29.984-1.807 56.057 5.33 75.373 24.646 39.074 39.073 67.804 113.3 74.406 190.194 6.602 76.894-8.965 155.944-57.865 204.844Z"/><path stroke="#fff" stroke-width="3" d="M350.351 10.268c74.095 1.048 151.984 47.736 211.638 108.884 59.676 61.17 100.697 136.389 101.512 194.031.819 57.925-14.884 100.033-49.084 127.46-34.272 27.483-87.391 40.454-161.926 39.4-74.539-1.054-170.408-14.761-247.796-42.706-38.699-13.974-72.677-31.473-97.056-52.652-24.36-21.163-39.04-45.905-39.443-74.446-.817-57.722 32.532-133.28 84.848-194.2C205.354 55.124 276.301 9.221 350.351 10.268Z"/><path fill="#fff" d="M530.448 40.553c5.599 3.07 3.425 11.603-2.886 11.325l-6.219-.273a5.82 5.82 0 0 0-3.286.84l-5.545 3.377c-5.331 3.248-11.512-3.075-8.247-8.436l3.28-5.386c.615-1.01.916-2.19.863-3.388l-.281-6.386c-.279-6.357 8.082-8.593 11.157-2.984l3.198 5.834a6.187 6.187 0 0 0 2.447 2.452l5.519 3.025Z"/><path fill="#99DEF9" fill-opacity=".32" d="M243.293 106.09c3.746-6.722 13.99-3.978 13.873 3.718-.071 4.62 4.061 8.175 8.619 7.417 7.592-1.263 11.832 8.457 5.743 13.164-3.656 2.826-3.86 8.272-.425 11.363 5.72 5.149.765 14.525-6.711 12.698-4.489-1.096-8.874 2.14-9.15 6.753-.458 7.682-10.878 9.654-14.111 2.67-1.942-4.193-7.207-5.604-10.984-2.943-6.292 4.431-14.331-2.486-10.886-9.369 2.067-4.132-.112-9.128-4.548-10.422-7.388-2.157-6.991-12.754.537-14.352 4.52-.96 7.067-5.779 5.314-10.054-2.921-7.12 5.612-13.418 11.556-8.528 3.568 2.935 8.924 1.922 11.173-2.115ZM501.118 155.068c1.873-3.361 6.995-1.989 6.936 1.859a3.703 3.703 0 0 0 4.31 3.709c3.796-.632 5.916 4.228 2.871 6.582a3.701 3.701 0 0 0-.212 5.681c2.86 2.574.382 7.262-3.356 6.349a3.703 3.703 0 0 0-4.575 3.376c-.229 3.842-5.439 4.827-7.055 1.335a3.703 3.703 0 0 0-5.492-1.471c-3.147 2.216-7.166-1.243-5.443-4.684a3.704 3.704 0 0 0-2.274-5.212c-3.694-1.078-3.496-6.376.268-7.176a3.702 3.702 0 0 0 2.657-5.026c-1.46-3.561 2.806-6.709 5.778-4.265a3.703 3.703 0 0 0 5.587-1.057Z"/><path fill="#99DEF9" fill-opacity=".41" d="M496.12 400.836c7.68 7.234.373 19.89-9.732 16.856l-3.032-.91a10.002 10.002 0 0 0-5.751 0l-3.032.91c-10.106 3.034-17.413-9.622-9.733-16.856l2.305-2.171a10.004 10.004 0 0 0 2.875-4.981l.728-3.081c2.425-10.268 17.039-10.268 19.465 0l.727 3.081a9.998 9.998 0 0 0 2.876 4.981l2.304 2.171Z"/><path fill="#99DEF9" fill-opacity=".42" d="M170.274 358.187c5.417-7.142 16.77-4.1 17.89 4.794l.509 4.043c.114.905.351 1.79.705 2.63l1.58 3.756c3.477 8.262-4.834 16.573-13.096 13.096l-3.756-1.58a9.986 9.986 0 0 0-2.63-.705l-4.043-.509c-8.894-1.12-11.936-12.473-4.794-17.89l3.248-2.462a10.028 10.028 0 0 0 1.925-1.925l2.462-3.248Z"/><path fill="#fff" fill-opacity=".34" d="M631.826 411.971c4.955-8.891 18.503-5.261 18.348 4.916-.093 6.11 5.371 10.812 11.399 9.81 10.04-1.67 15.649 11.185 7.596 17.41-4.835 3.737-5.105 10.94-.563 15.028 7.566 6.809 1.012 19.209-8.875 16.794-5.936-1.451-11.737 2.83-12.101 8.93-.606 10.16-14.387 12.768-18.663 3.531-2.567-5.545-9.531-7.411-14.527-3.892-8.321 5.861-18.952-3.288-14.397-12.39 2.735-5.465-.148-12.072-6.014-13.784-9.771-2.852-9.246-16.868.71-18.981 5.978-1.27 9.346-7.643 7.028-13.297-3.863-9.417 7.422-17.746 15.283-11.279 4.719 3.882 11.802 2.542 14.776-2.796Z"/><path fill="#fff" fill-opacity=".23" d="M121.542 77.525c7.68 7.235.373 19.891-9.732 16.857l-18.017-5.409a10.002 10.002 0 0 0-5.75 0l-18.018 5.409c-10.105 3.034-17.412-9.622-9.732-16.857l13.693-12.898a10.004 10.004 0 0 0 2.875-4.981l4.324-18.307c2.425-10.269 17.04-10.269 19.465 0l4.324 18.307a10.004 10.004 0 0 0 2.875 4.981l13.693 12.898Z"/></svg>