<svg xmlns="http://www.w3.org/2000/svg" width="689" height="526" fill="none"><path fill="#fff" d="M574.302 263.425c0 102.023-161.376 212.078-263.69 212.078-102.315 0-150.612-44.8-150.612-146.823 0-102.023 43.485-261.979 145.8-261.979 102.314 0 268.502 94.701 268.502 196.724Z"/><path stroke="#fff" stroke-width="3" d="M519.863 261.056c0 63.137-38.697 128.99-89.925 179.138-51.249 50.171-114.625 84.222-163.515 84.222-49.172 0-85.068-13.894-108.732-43.342-23.722-29.52-35.381-74.947-35.381-138.523 0-63.579 10.494-145.201 33.303-210.878 11.406-32.842 25.858-61.599 43.538-82.118 17.665-20.502 38.457-32.684 62.62-32.684 48.969 0 113.53 29.336 165.909 74.696 52.371 45.354 92.183 106.398 92.183 169.489Z"/><path stroke="#fff" stroke-width="3" d="M229.922 105.228c37.159-37.158 98.818-53.069 158.686-52.307 59.897.762 117.423 18.202 146.305 47.084 29.082 29.083 42.096 58.46 38.754 89.736-3.352 31.368-23.186 65.005-60.655 102.474-37.472 37.472-91.789 79.367-143.988 104.572-26.103 12.604-51.582 20.989-74.106 22.616-22.499 1.626-41.915-3.493-56.158-17.735-28.938-28.939-49.855-84.397-54.119-142.121-4.264-57.716 8.155-117.193 45.281-154.319Z"/><path fill="#fff" d="M438.052 50.595c6.051-1.817 10.427 5.762 5.827 10.094a5.99 5.99 0 0 0-1.721 2.983c-1.453 6.149-10.204 6.149-11.656 0a5.999 5.999 0 0 0-1.722-2.983c-4.599-4.332-.224-11.911 5.828-10.094a5.992 5.992 0 0 0 3.444 0Z"/><path fill="#fff" fill-opacity=".23" d="M595.938 4.172c5.416-7.142 16.769-4.1 17.889 4.793l1.825 14.495c.114.905.351 1.79.705 2.63l5.667 13.465c3.477 8.262-4.835 16.573-13.096 13.096l-13.466-5.667a9.996 9.996 0 0 0-2.63-.704l-14.495-1.825c-8.893-1.12-11.935-12.473-4.793-17.89l11.64-8.828a9.992 9.992 0 0 0 1.926-1.925l8.828-11.64Z"/><path fill="#fff" fill-opacity=".34" d="M586.471 366.543c4.172-7.487 15.579-4.43 15.449 4.139-.078 5.145 4.522 9.105 9.598 8.26 8.455-1.406 13.177 9.419 6.396 14.66-4.071 3.147-4.298 9.212-.473 12.654 6.37 5.734.852 16.175-7.474 14.141-4.998-1.221-9.882 2.383-10.189 7.52-.51 8.555-12.114 10.751-15.715 2.973-2.162-4.669-8.025-6.24-12.232-3.277-7.007 4.935-15.958-2.769-12.123-10.433 2.303-4.602-.124-10.165-5.064-11.607-8.227-2.401-7.785-14.203.598-15.983 5.034-1.068 7.87-6.435 5.918-11.195-3.253-7.93 6.25-14.943 12.868-9.498 3.974 3.269 9.938 2.14 12.443-2.354Z"/><path fill="#fff" fill-opacity=".23" d="M675.478 221.844c10.106-3.034 17.412 9.622 9.732 16.857l-6.316 5.95a10 10 0 0 0-2.875 4.98l-1.995 8.445c-2.425 10.268-17.039 10.268-19.464 0l-1.995-8.445a10 10 0 0 0-2.875-4.98l-6.316-5.95c-7.68-7.235-.374-19.891 9.732-16.857l8.311 2.495a9.999 9.999 0 0 0 5.75 0l8.311-2.495ZM150.526 47.074c7.68 7.235.373 19.891-9.732 16.857l-8.311-2.495a10.002 10.002 0 0 0-5.751 0l-8.311 2.495c-10.105 3.034-17.412-9.622-9.732-16.857l6.316-5.95a9.996 9.996 0 0 0 2.876-4.98l1.994-8.445c2.426-10.268 17.039-10.268 19.465 0l1.994 8.445a9.996 9.996 0 0 0 2.876 4.98l6.316 5.95Z"/></svg>