<svg xmlns="http://www.w3.org/2000/svg" width="794" height="628" fill="none"><path fill="#fff" d="M710.793 301.905c-16.044 138.082-270.849 299.386-413.298 282.834-142.45-16.551-190.013-164.576-173.969-302.658C139.57 143.999 225.885 15.659 355.083 30.671c142.45 16.551 371.754 133.152 355.71 271.234Z"/><path stroke="#fff" stroke-width="3" d="M569.993 469.779c-54.541 54.541-145.781 77.018-234.55 74.818-88.791-2.2-174.529-29.073-218.025-72.569-43.695-43.695-63.637-87.648-59.22-134.191 4.426-46.624 33.324-96.216 88.181-151.073 54.861-54.861 134.608-115.98 211.538-152.411C396.385 16.136 434.056 4.136 467.505 2.12c33.423-2.014 62.512 5.94 84.067 27.496 43.551 43.552 75.555 126.256 82.909 211.91 7.354 85.654-9.981 173.746-64.488 228.252Z"/><path stroke="#fff" stroke-width="3" d="M383.837 10.508c82.579 1.168 169.359 53.196 235.808 121.308 66.469 68.134 112.186 151.94 113.095 216.196.913 64.539-16.584 111.488-54.723 142.073-38.21 30.642-97.411 45.087-180.429 43.913-83.023-1.174-189.805-16.441-276.007-47.568-43.106-15.566-80.967-35.062-108.139-58.667-27.153-23.589-43.535-51.186-43.986-83.034-.91-64.336 36.254-148.516 94.529-216.376C222.254 60.5 301.304 9.341 383.837 10.508Z"/><path fill="#99DEF9" fill-opacity=".32" d="M264.616 117.388c4.172-7.487 15.58-4.43 15.449 4.14-.078 5.145 4.523 9.104 9.599 8.26 8.454-1.406 13.177 9.418 6.396 14.659-4.072 3.147-4.299 9.213-.474 12.655 6.371 5.733.852 16.174-7.473 14.14-4.999-1.221-9.883 2.384-10.189 7.52-.511 8.555-12.115 10.751-15.715 2.973-2.162-4.669-8.025-6.24-12.232-3.277-7.007 4.935-15.959-2.768-12.123-10.433 2.303-4.601-.125-10.165-5.064-11.606-8.227-2.402-7.786-14.203.598-15.983 5.033-1.069 7.87-6.435 5.917-11.196-3.252-7.93 6.25-14.943 12.869-9.498 3.973 3.269 9.938 2.141 12.442-2.354ZM551.735 171.931c2.086-3.744 7.79-2.215 7.725 2.069a4.122 4.122 0 0 0 4.799 4.13c4.227-.703 6.588 4.71 3.198 7.33a4.123 4.123 0 0 0-.237 6.327c3.185 2.867.426 8.088-3.737 7.071a4.122 4.122 0 0 0-5.094 3.76c-.255 4.277-6.057 5.375-7.858 1.486a4.123 4.123 0 0 0-6.116-1.638c-3.503 2.467-7.979-1.385-6.061-5.217a4.124 4.124 0 0 0-2.532-5.803c-4.114-1.201-3.893-7.102.299-7.992a4.123 4.123 0 0 0 2.958-5.598c-1.626-3.964 3.125-7.471 6.435-4.748a4.123 4.123 0 0 0 6.221-1.177Z"/><path fill="#99DEF9" fill-opacity=".41" d="M549.671 448.92c7.68 7.234.373 19.89-9.732 16.856l-8.311-2.495a10.002 10.002 0 0 0-5.751 0l-8.31 2.495c-10.106 3.034-17.413-9.622-9.732-16.856l6.316-5.95a10.005 10.005 0 0 0 2.875-4.98l1.995-8.445c2.425-10.269 17.039-10.269 19.464 0l1.995 8.445a10.005 10.005 0 0 0 2.875 4.98l6.316 5.95Z"/><path fill="#99DEF9" fill-opacity=".42" d="M184.987 395.907c5.416-7.142 16.77-4.1 17.889 4.793l.935 7.424c.114.904.351 1.789.705 2.629l2.902 6.896c3.477 8.262-4.834 16.573-13.096 13.096l-6.896-2.902a10.004 10.004 0 0 0-2.63-.704l-7.423-.935c-8.894-1.12-11.936-12.473-4.794-17.89l5.962-4.521a10 10 0 0 0 1.925-1.925l4.521-5.961Z"/><path fill="#fff" fill-opacity=".34" d="M699.047 454.877c5.059-9.079 18.892-5.372 18.734 5.02l-.071 4.686c-.095 6.239 5.484 11.04 11.64 10.016l4.623-.769c10.252-1.705 15.979 11.421 7.755 17.777l-3.708 2.866c-4.937 3.816-5.212 11.171-.574 15.345l3.484 3.135c7.725 6.953 1.033 19.614-9.063 17.148l-4.552-1.112c-6.062-1.481-11.984 2.89-12.356 9.118l-.279 4.678c-.619 10.375-14.69 13.037-19.057 3.606l-1.969-4.253c-2.621-5.662-9.731-7.567-14.833-3.974l-3.831 2.698c-8.497 5.985-19.352-3.356-14.701-12.651l2.097-4.191c2.793-5.58-.151-12.326-6.14-14.074l-4.499-1.313c-9.977-2.913-9.441-17.224.725-19.382l4.584-.973c6.104-1.296 9.543-7.804 7.176-13.577l-1.779-4.336c-3.943-9.615 7.579-18.12 15.606-11.517l3.619 2.978c4.818 3.964 12.051 2.595 15.088-2.855l2.281-4.094Z"/><path fill="#fff" fill-opacity=".23" d="M132.535 88.876c7.68 7.234.373 19.89-9.732 16.857l-24.998-7.505a10.002 10.002 0 0 0-5.75 0l-24.999 7.505c-10.106 3.033-17.413-9.623-9.732-16.857L76.322 70.98A9.99 9.99 0 0 0 79.197 66l6-25.401c2.425-10.269 17.039-10.269 19.464 0l6 25.401a9.997 9.997 0 0 0 2.875 4.98l18.999 17.897Z"/></svg>