<svg xmlns="http://www.w3.org/2000/svg" width="766" height="566" fill="none"><path fill="#fff" d="M703.309 287.074c0 108.378-231.484 225.289-378.248 225.289-146.764 0-216.043-47.591-216.043-155.97 0-108.378 62.376-278.298 209.141-278.298 146.764 0 385.15 100.601 385.15 208.979Z"/><path stroke="#fff" stroke-width="3" d="M625.871 284.557c0 33.426-13.822 67.631-36.91 100.196-23.082 32.558-55.363 63.387-92.108 90.026-73.532 53.308-164.652 89.637-235.178 89.637-70.778 0-122.548-14.83-156.63-46.24-34.056-31.385-50.744-79.598-50.744-147.047 0-67.497 15.045-154.163 47.749-223.9 32.727-69.787 82.888-122.16 152.952-122.16 70.587 0 163.401 31.282 238.585 79.5 37.576 24.099 70.677 52.384 94.369 83.025 23.694 30.644 37.915 63.56 37.915 96.963Z"/><path stroke="#fff" stroke-width="3" d="M209.001 118.788c53.422-39.562 142.011-56.472 227.947-55.662 85.969.81 168.627 19.344 210.176 50.114 41.777 30.938 60.532 62.24 55.719 95.595-4.824 33.433-33.359 69.232-87.135 109.056-53.778 39.827-131.733 84.355-206.663 111.15-37.469 13.399-74.076 22.324-106.463 24.057-32.36 1.732-60.354-3.718-80.904-18.936-41.613-30.817-71.639-89.819-77.76-151.184-6.121-61.358 11.697-124.655 65.083-164.19Z"/><path fill="#fff" d="M512.577 59.939c6.688-1.487 12.312 5.726 7.229 9.273l-4.163 2.904c-.847.59-1.445 1.376-1.731 2.27l-2.276 7.138c-1.635 5.127-11.132 4.226-12.869-1.221l-1.742-5.461c-.377-1.181-1.23-2.276-2.423-3.108l-5.515-3.847c-5.502-3.838-1.807-10.38 5.007-8.865l9.484 2.109c1.19.264 2.407.273 3.521.026l5.478-1.218Z"/><path fill="#fff" fill-opacity=".23" d="M627.938 28.171c5.416-7.142 16.769-4.1 17.889 4.794l1.825 14.495c.114.904.351 1.79.705 2.63l5.667 13.465c3.477 8.262-4.835 16.573-13.096 13.096l-13.466-5.667a9.984 9.984 0 0 0-2.63-.704l-14.495-1.825c-8.893-1.12-11.935-12.473-4.793-17.89l11.64-8.828a9.992 9.992 0 0 0 1.926-1.925l8.828-11.64Z"/><path fill="#fff" fill-opacity=".34" d="M618.471 390.543c4.172-7.487 15.579-4.43 15.449 4.139-.078 5.145 4.522 9.104 9.598 8.26 8.455-1.406 13.177 9.419 6.396 14.66-4.071 3.146-4.298 9.212-.473 12.654 6.37 5.733.852 16.175-7.474 14.141-4.998-1.221-9.882 2.383-10.189 7.519-.51 8.556-12.114 10.751-15.715 2.974-2.162-4.669-8.025-6.24-12.232-3.278-7.007 4.936-15.958-2.768-12.123-10.432 2.303-4.602-.124-10.165-5.064-11.607-8.227-2.401-7.785-14.203.598-15.983 5.034-1.068 7.87-6.435 5.918-11.196-3.253-7.929 6.25-14.942 12.868-9.497 3.974 3.269 9.938 2.14 12.443-2.354Z"/><path fill="#fff" fill-opacity=".23" d="M707.478 245.844c10.106-3.033 17.412 9.623 9.732 16.857l-6.316 5.95a10 10 0 0 0-2.875 4.98l-1.995 8.445c-2.425 10.269-17.039 10.269-19.464 0l-1.995-8.445a10 10 0 0 0-2.875-4.98l-6.316-5.95c-7.68-7.234-.374-19.89 9.732-16.857l8.311 2.496a9.999 9.999 0 0 0 5.75 0l8.311-2.496ZM182.526 71.074c7.68 7.235.373 19.891-9.732 16.857l-8.311-2.495a10.002 10.002 0 0 0-5.751 0l-8.311 2.495c-10.105 3.034-17.412-9.622-9.732-16.857l6.316-5.95a9.99 9.99 0 0 0 2.876-4.98l1.994-8.445c2.426-10.268 17.039-10.268 19.465 0l1.994 8.445a9.99 9.99 0 0 0 2.876 4.98l6.316 5.95Z"/></svg>