<svg xmlns="http://www.w3.org/2000/svg" width="866" height="799" fill="none"><path fill="#fff" fill-opacity=".23" d="M190.535 672.403c7.68 7.235.373 19.891-9.732 16.857l-24.998-7.505a10.002 10.002 0 0 0-5.751 0l-24.998 7.505c-10.106 3.034-17.413-9.622-9.732-16.857l18.998-17.896a9.996 9.996 0 0 0 2.875-4.981l6-25.401c2.425-10.269 17.039-10.269 19.464 0l6 25.401a10.004 10.004 0 0 0 2.875 4.981l18.999 17.896Z"/><path fill="#fff" d="M744 290.5c48.545 134.646-108.212 337.741-267.19 395.058-158.978 57.318-279.722-54.072-328.267-188.717-48.545-134.646-17.917-296.122 126.272-348.108C433.793 91.415 695.455 155.854 744 290.5Z"/><path stroke="#fff" stroke-width="3" d="M593.991 522.308c-54.541 54.541-145.781 77.018-234.55 74.818-88.791-2.2-174.529-29.073-218.025-72.569-43.695-43.695-63.637-87.649-59.22-134.191 4.426-46.625 33.324-96.217 88.181-151.073 54.861-54.862 134.608-115.98 211.538-152.411 38.468-18.217 76.14-30.217 109.588-32.232 33.423-2.014 62.512 5.94 84.067 27.496 43.551 43.551 75.555 126.255 82.909 211.91 7.354 85.653-9.981 173.745-64.488 228.252Z"/><path stroke="#fff" stroke-width="3" d="M407.834 63.037c82.579 1.167 169.359 53.196 235.808 121.308 66.469 68.134 112.186 151.94 113.095 216.196.913 64.539-16.584 111.488-54.723 142.073-38.21 30.642-97.411 45.087-180.429 43.913-83.023-1.174-189.804-16.441-276.007-47.568-43.106-15.566-80.967-35.062-108.139-58.667-27.153-23.589-43.535-51.187-43.985-83.034-.91-64.336 36.253-148.516 94.528-216.376 58.269-67.853 137.319-119.013 219.852-117.845Z"/><path fill="#99DEF9" fill-opacity=".42" d="M182.841 459.434c5.417-7.142 16.77-4.1 17.89 4.793l.934 7.424c.114.904.351 1.789.705 2.629l2.902 6.897c3.477 8.261-4.834 16.573-13.096 13.096l-6.896-2.903c-.84-.353-1.725-.59-2.63-.704l-7.423-.935c-8.893-1.12-11.936-12.473-4.793-17.889l5.961-4.522a9.972 9.972 0 0 0 1.925-1.925l4.521-5.961Z"/><path fill="#fff" fill-opacity=".34" d="M722.211 492.257c5.059-9.079 18.893-5.372 18.734 5.02l-.071 4.686c-.095 6.239 5.485 11.04 11.64 10.016l4.623-.769c10.252-1.705 15.979 11.422 7.756 17.777l-3.708 2.866c-4.937 3.816-5.213 11.171-.575 15.345l3.484 3.135c7.725 6.953 1.033 19.614-9.063 17.148l-4.552-1.112c-6.062-1.481-11.984 2.89-12.356 9.118l-.279 4.679c-.619 10.374-14.69 13.037-19.057 3.605l-1.969-4.253c-2.621-5.662-9.731-7.567-14.833-3.974l-3.831 2.699c-8.497 5.984-19.352-3.357-14.701-12.652l2.097-4.19c2.793-5.58-.151-12.327-6.14-14.075l-4.499-1.313c-9.977-2.912-9.441-17.223.725-19.382l4.584-.973c6.104-1.296 9.543-7.804 7.176-13.577l-1.779-4.336c-3.943-9.615 7.579-18.119 15.606-11.517l3.619 2.978c4.818 3.964 12.051 2.595 15.088-2.855l2.281-4.094Z"/><path fill="#fff" fill-opacity=".23" d="M852.09 363.726c10.11-3.034 17.41 9.622 9.73 16.857l-19 17.896a10.03 10.03 0 0 0-2.87 4.98l-6 25.402c-2.43 10.268-17.04 10.268-19.47 0l-5.996-25.402a10 10 0 0 0-2.875-4.98l-18.998-17.896c-7.681-7.235-.374-19.891 9.732-16.857l24.997 7.505c1.88.563 3.88.563 5.75 0l25-7.505ZM154.68 145.876c7.68 7.234.374 19.89-9.732 16.856l-24.998-7.504a9.985 9.985 0 0 0-5.751 0l-24.998 7.504c-10.105 3.034-17.412-9.622-9.732-16.856l19-17.897a9.996 9.996 0 0 0 2.874-4.98l6-25.402c2.425-10.268 17.039-10.268 19.464 0L132.806 123a9.998 9.998 0 0 0 2.876 4.98l18.998 17.897Z"/></svg>