<svg xmlns="http://www.w3.org/2000/svg" width="871" height="755" fill="none"><path fill="#fff" fill-opacity=".23" d="M196.389 663.93c7.68 7.235.374 19.891-9.732 16.857l-24.998-7.505a10.002 10.002 0 0 0-5.751 0l-24.998 7.505c-10.105 3.034-17.412-9.622-9.732-16.857l18.999-17.896a10.005 10.005 0 0 0 2.875-4.98l6-25.402c2.425-10.268 17.039-10.268 19.464 0l5.999 25.402a10.007 10.007 0 0 0 2.876 4.98l18.998 17.896Z"/><path fill="#fff" d="M745.001 324.5c-16.044 138.082 0 392.5-417.651 352.767C184.9 660.715 111.457 462.582 127.5 324.5c16.044-138.082 156-213.088 257.438-201.302 142.45 16.551 376.107 63.22 360.063 201.302Z"/><path stroke="#fff" stroke-width="3" d="M599.847 562.307c-54.54 54.54-145.781 77.017-234.55 74.818-88.79-2.201-174.528-29.074-218.025-72.57-43.695-43.695-63.637-87.648-59.22-134.191 4.426-46.624 33.325-96.216 88.181-151.073 54.862-54.861 134.609-115.98 211.539-152.411 38.468-18.217 76.139-30.217 109.587-32.232 33.423-2.014 62.512 5.941 84.067 27.496 43.552 43.552 75.555 126.256 82.91 211.91 7.354 85.654-9.982 173.746-64.489 228.253Z"/><path stroke="#fff" stroke-width="3" d="M413.692 103.035c82.579 1.168 169.359 53.196 235.807 121.308 66.469 68.134 112.187 151.94 113.095 216.197.913 64.538-16.584 111.488-54.722 142.073-38.21 30.641-97.411 45.086-180.43 43.912-83.023-1.174-189.804-16.44-276.007-47.568-43.105-15.565-80.967-35.062-108.138-58.667-27.154-23.589-43.535-51.186-43.986-83.034-.91-64.335 36.254-148.516 94.528-216.376 58.27-67.853 137.32-119.012 219.853-117.845Z"/><path fill="#fff" fill-opacity=".34" d="M728.902 547.404c5.059-9.078 18.892-5.372 18.734 5.02l-.071 4.686c-.095 6.239 5.484 11.04 11.639 10.016l4.623-.768c10.252-1.706 15.979 11.421 7.756 17.776L767.875 587c-4.937 3.816-5.212 11.171-.574 15.346l3.483 3.135c7.725 6.952 1.034 19.613-9.062 17.147l-4.553-1.112c-6.061-1.481-11.984 2.89-12.355 9.118l-.28 4.679c-.619 10.374-14.69 13.037-19.056 3.605l-1.969-4.252c-2.622-5.663-9.732-7.568-14.833-3.975l-3.832 2.699c-8.497 5.984-19.352-3.357-14.701-12.651l2.098-4.191c2.792-5.58-.151-12.327-6.141-14.075l-4.499-1.313c-9.976-2.912-9.441-17.223.725-19.382l4.585-.973c6.103-1.296 9.543-7.803 7.175-13.576l-1.778-4.336c-3.944-9.616 7.579-18.12 15.605-11.518l3.619 2.978c4.819 3.964 12.051 2.595 15.089-2.855l2.281-4.094Z"/><path fill="#fff" fill-opacity=".23" d="M857.944 355.253c10.106-3.034 17.412 9.622 9.732 16.857l-18.998 17.896a10.005 10.005 0 0 0-2.876 4.981l-5.999 25.401c-2.425 10.268-17.039 10.268-19.465 0l-5.999-25.401a10.004 10.004 0 0 0-2.875-4.981l-18.999-17.896c-7.68-7.235-.373-19.891 9.732-16.857l24.998 7.505c1.876.563 3.876.563 5.751 0l24.998-7.505ZM160.535 137.403c7.68 7.235.373 19.891-9.732 16.857l-24.998-7.505a10.002 10.002 0 0 0-5.751 0l-24.998 7.505c-10.105 3.034-17.412-9.622-9.732-16.857l18.998-17.896a10.005 10.005 0 0 0 2.876-4.981l5.999-25.401c2.425-10.269 17.039-10.269 19.464 0l6 25.401a10.004 10.004 0 0 0 2.875 4.981l18.999 17.896Z"/></svg>