<svg xmlns="http://www.w3.org/2000/svg" width="825" height="618" fill="none"><path fill="#fff" d="M694.647 333.432c-16.044 138.082-270.848 299.386-413.298 282.834C138.9 599.715 91.337 451.691 107.381 313.609 123.425 175.527 209.739 47.186 338.938 62.198 481.387 78.749 710.692 195.35 694.647 333.432Z"/><path stroke="#fff" stroke-width="3" d="M553.848 501.307c-54.541 54.54-145.781 77.017-234.55 74.817-88.791-2.2-174.529-29.073-218.025-72.569-43.695-43.695-63.637-87.648-59.22-134.191 4.426-46.624 33.324-96.216 88.181-151.073 54.861-54.861 134.608-115.98 211.538-152.41 38.468-18.218 76.139-30.218 109.588-32.233 33.423-2.014 62.512 5.941 84.067 27.496 43.551 43.552 75.555 126.256 82.909 211.91 7.354 85.654-9.982 173.746-64.488 228.253Z"/><path stroke="#fff" stroke-width="3" d="M367.692 42.035c82.579 1.167 169.359 53.196 235.807 121.308 66.47 68.134 112.187 151.94 113.096 216.196.912 64.539-16.584 111.488-54.723 142.073-38.21 30.642-97.411 45.087-180.43 43.913-83.022-1.174-189.804-16.441-276.007-47.568-43.105-15.566-80.966-35.062-108.138-58.667-27.153-23.589-43.535-51.186-43.986-83.034-.91-64.336 36.254-148.516 94.529-216.376C206.109 92.027 285.159 40.868 367.692 42.035Z"/><path fill="#99DEF9" fill-opacity=".32" d="M248.471 148.915c4.172-7.486 15.579-4.43 15.449 4.14-.078 5.145 4.523 9.104 9.598 8.26 8.455-1.406 13.178 9.418 6.396 14.659-4.071 3.147-4.298 9.213-.473 12.655 6.37 5.733.852 16.174-7.474 14.14-4.998-1.221-9.882 2.384-10.188 7.52-.511 8.555-12.115 10.751-15.716 2.974-2.161-4.67-8.025-6.241-12.231-3.278-7.008 4.935-15.959-2.768-12.123-10.433 2.302-4.601-.125-10.165-5.064-11.606-8.228-2.402-7.786-14.203.598-15.983 5.033-1.069 7.869-6.435 5.917-11.196-3.252-7.93 6.25-14.943 12.868-9.498 3.974 3.269 9.938 2.141 12.443-2.354ZM642.736 283.458c2.086-3.744 7.789-2.215 7.724 2.069a4.124 4.124 0 0 0 4.799 4.131c4.228-.704 6.589 4.709 3.198 7.329a4.124 4.124 0 0 0-.236 6.328c3.185 2.866.426 8.087-3.737 7.07a4.124 4.124 0 0 0-5.095 3.76c-.255 4.277-6.057 5.375-7.857 1.486a4.123 4.123 0 0 0-6.116-1.638c-3.504 2.467-7.979-1.384-6.062-5.217a4.123 4.123 0 0 0-2.532-5.803c-4.113-1.201-3.892-7.102.299-7.991a4.124 4.124 0 0 0 2.959-5.598c-1.626-3.965 3.125-7.472 6.434-4.749a4.125 4.125 0 0 0 6.222-1.177Z"/><path fill="#99DEF9" fill-opacity=".41" d="M533.526 480.447c7.68 7.235.373 19.89-9.732 16.857l-8.311-2.495a9.985 9.985 0 0 0-5.751 0l-8.311 2.495c-10.105 3.033-17.412-9.622-9.732-16.857l6.316-5.95a9.995 9.995 0 0 0 2.876-4.98l1.994-8.445c2.426-10.269 17.04-10.269 19.465 0l1.994 8.445a10.003 10.003 0 0 0 2.876 4.98l6.316 5.95Z"/><path fill="#99DEF9" fill-opacity=".42" d="M168.842 427.434c5.416-7.142 16.769-4.1 17.889 4.793l.935 7.424c.114.904.351 1.789.704 2.629l2.903 6.897c3.477 8.261-4.835 16.573-13.096 13.096l-6.897-2.903c-.84-.353-1.725-.59-2.629-.704l-7.424-.935c-8.893-1.12-11.935-12.473-4.793-17.889l5.961-4.522a9.972 9.972 0 0 0 1.925-1.925l4.522-5.961Z"/><path fill="#fff" fill-opacity=".23" d="M698.451 3.994c5.417-7.142 16.77-4.1 17.89 4.793l3.457 27.461c.114.905.351 1.79.705 2.63l10.736 25.511c3.477 8.261-4.834 16.573-13.096 13.096l-25.511-10.737c-.84-.353-1.725-.59-2.629-.704l-27.461-3.458c-8.894-1.119-11.936-12.473-4.794-17.889l22.053-16.725a10.005 10.005 0 0 0 1.926-1.925l16.724-22.053Z"/><path fill="#fff" fill-opacity=".34" d="M682.902 486.404c5.059-9.079 18.892-5.372 18.734 5.02l-.071 4.686c-.095 6.239 5.484 11.04 11.639 10.016l4.623-.769c10.253-1.705 15.979 11.421 7.756 17.777L721.875 526c-4.937 3.816-5.212 11.171-.574 15.345l3.483 3.135c7.726 6.953 1.034 19.614-9.062 17.148l-4.553-1.113c-6.061-1.48-11.984 2.891-12.355 9.119l-.279 4.678c-.619 10.375-14.691 13.037-19.057 3.606l-1.969-4.253c-2.622-5.662-9.732-7.567-14.833-3.974l-3.831 2.698c-8.498 5.985-19.353-3.357-14.701-12.651l2.097-4.191c2.792-5.58-.151-12.326-6.141-14.074l-4.498-1.313c-9.977-2.913-9.442-17.224.725-19.382l4.584-.973c6.104-1.296 9.543-7.804 7.175-13.577l-1.778-4.336c-3.944-9.615 7.579-18.12 15.605-11.517l3.619 2.978c4.819 3.964 12.051 2.595 15.089-2.855l2.281-4.094Z"/><path fill="#fff" fill-opacity=".23" d="M811.94 294.253c10.11-3.034 17.42 9.622 9.74 16.857l-19 17.896a9.977 9.977 0 0 0-2.88 4.98l-6 25.402c-2.42 10.268-17.036 10.268-19.461 0l-6-25.402a10.005 10.005 0 0 0-2.875-4.98l-18.999-17.896c-7.68-7.235-.373-19.891 9.733-16.857l24.998 7.505c1.874.563 3.874.563 5.754 0l24.99-7.505ZM114.535 76.403c7.68 7.235.373 19.89-9.732 16.857l-24.998-7.505a10.002 10.002 0 0 0-5.751 0L49.056 93.26c-10.106 3.034-17.413-9.622-9.732-16.857l18.998-17.896a9.996 9.996 0 0 0 2.875-4.981l6-25.401c2.425-10.269 17.039-10.269 19.464 0l6 25.4a10.004 10.004 0 0 0 2.875 4.982l18.999 17.896Z"/></svg>