<svg xmlns="http://www.w3.org/2000/svg" width="678" height="601" fill="none"><path fill="#fff" fill-opacity=".23" d="M89.535 583.403c7.68 7.235.373 19.891-9.732 16.857l-24.998-7.505a10.002 10.002 0 0 0-5.75 0l-25 7.505c-10.104 3.034-17.411-9.622-9.731-16.857l18.998-17.896a10.003 10.003 0 0 0 2.876-4.981l6-25.401c2.424-10.269 17.038-10.269 19.463 0l6 25.401a10.004 10.004 0 0 0 2.875 4.981l19 17.896Z"/><path fill="#fff" fill-opacity=".01" d="M674.409 335.98c7.68 7.235.373 19.891-9.732 16.857l-24.998-7.505a10.002 10.002 0 0 0-5.751 0l-24.998 7.505c-10.105 3.034-17.412-9.622-9.732-16.857l18.998-17.896a10.005 10.005 0 0 0 2.876-4.981l5.999-25.401c2.425-10.269 17.039-10.269 19.464 0l6 25.401a10.004 10.004 0 0 0 2.875 4.981l18.999 17.896Z"/><path fill="#fff" d="M565.302 314.425c0 102.023-161.376 212.078-263.69 212.078-102.315 0-150.612-44.8-150.612-146.823 0-102.023 43.485-261.979 145.8-261.979 102.314 0 268.502 94.701 268.502 196.724Z"/><path stroke="#fff" stroke-width="3" d="M510.862 312.056c0 63.137-38.696 128.99-89.924 179.138-51.25 50.171-114.626 84.222-163.515 84.222-49.172 0-85.069-13.894-108.732-43.342-23.722-29.52-35.381-74.947-35.381-138.523 0-63.579 10.494-145.201 33.302-210.878 11.406-32.842 25.858-61.599 43.538-82.118 17.665-20.502 38.458-32.683 62.621-32.683 48.968 0 113.53 29.335 165.908 74.695 52.371 45.354 92.183 106.398 92.183 169.489Z"/><path stroke="#fff" stroke-width="3" d="M220.922 156.228c37.158-37.159 98.818-53.069 158.685-52.307 59.898.761 117.423 18.202 146.306 47.084 29.082 29.082 42.096 58.46 38.754 89.736-3.352 31.368-23.186 65.005-60.656 102.474-37.472 37.472-91.789 79.367-143.987 104.571-26.103 12.605-51.583 20.99-74.106 22.617-22.5 1.626-41.916-3.493-56.159-17.736-28.938-28.938-49.855-84.396-54.119-142.12-4.263-57.716 8.156-117.193 45.282-154.319Z"/><path fill="#fff" d="M429.051 101.595c6.052-1.817 10.427 5.762 5.828 10.094a5.999 5.999 0 0 0-1.722 2.983c-1.452 6.149-10.203 6.149-11.656 0a5.984 5.984 0 0 0-1.722-2.983c-4.599-4.332-.223-11.91 5.828-10.094a5.992 5.992 0 0 0 3.444 0Z"/><path fill="#fff" fill-opacity=".34" d="M510.472 95.915c4.172-7.487 15.579-4.43 15.449 4.14-.078 5.145 4.522 9.104 9.598 8.26 8.455-1.406 13.177 9.418 6.396 14.659-4.071 3.147-4.298 9.213-.473 12.655 6.37 5.733.852 16.174-7.474 14.14-4.998-1.221-9.882 2.384-10.189 7.52-.51 8.555-12.114 10.751-15.715 2.974-2.162-4.67-8.025-6.241-12.232-3.278-7.007 4.935-15.958-2.768-12.123-10.433 2.303-4.601-.124-10.165-5.064-11.606-8.227-2.402-7.785-14.203.598-15.983 5.034-1.069 7.87-6.435 5.917-11.196-3.252-7.93 6.251-14.942 12.869-9.498 3.974 3.269 9.938 2.141 12.443-2.354Z"/><path fill="#99DEF9" fill-opacity=".31" d="M220.472 363.915c4.172-7.486 15.579-4.43 15.449 4.14-.078 5.145 4.522 9.104 9.598 8.26 8.455-1.406 13.177 9.418 6.396 14.659-4.071 3.147-4.298 9.213-.473 12.655 6.37 5.733.852 16.174-7.474 14.14-4.998-1.221-9.882 2.384-10.189 7.52-.51 8.555-12.114 10.751-15.715 2.974-2.162-4.67-8.025-6.241-12.232-3.278-7.007 4.935-15.958-2.768-12.123-10.433 2.303-4.601-.124-10.165-5.064-11.606-8.227-2.402-7.785-14.203.598-15.983 5.034-1.069 7.87-6.435 5.917-11.196-3.252-7.93 6.251-14.943 12.869-9.498 3.974 3.269 9.938 2.141 12.443-2.354Z"/><path fill="#0093DA" fill-opacity=".1" d="M489.633 333.329c5.928-8.729 19.581-3.518 18.185 6.941l-1.148 8.601a10 10 0 0 0 .911 5.678l3.779 7.811c4.596 9.497-6.744 18.716-15.103 12.278l-6.875-5.295a10.005 10.005 0 0 0-5.373-2.05l-8.654-.633c-10.523-.769-12.836-15.198-3.081-19.219l8.022-3.306a9.998 9.998 0 0 0 4.463-3.628l4.874-7.178Z"/><path fill="#fff" fill-opacity=".23" d="M141.526 98.074c7.68 7.235.373 19.891-9.733 16.857l-8.31-2.495a10.002 10.002 0 0 0-5.751 0l-8.311 2.495c-10.105 3.034-17.412-9.622-9.732-16.857l6.316-5.95a10.003 10.003 0 0 0 2.876-4.98l1.994-8.445c2.425-10.268 17.039-10.268 19.465 0l1.994 8.445a9.996 9.996 0 0 0 2.876 4.98l6.316 5.95Z"/></svg>