<svg xmlns="http://www.w3.org/2000/svg" width="918" height="738" fill="none"><path fill="#fff" fill-opacity=".23" d="M791.451 83.994c5.417-7.142 16.77-4.1 17.89 4.793l3.457 27.461c.114.905.351 1.79.705 2.63l10.736 25.511c3.477 8.262-4.834 16.573-13.096 13.096l-25.51-10.737a10.033 10.033 0 0 0-2.63-.704l-27.461-3.458c-8.893-1.119-11.936-12.473-4.793-17.889l22.053-16.725a10.028 10.028 0 0 0 1.925-1.925l16.724-22.053Z"/><path fill="#fff" fill-opacity=".34" d="M775.902 566.404c5.059-9.079 18.892-5.372 18.734 5.02l-.071 4.686c-.095 6.239 5.484 11.04 11.64 10.016l4.623-.769c10.252-1.705 15.979 11.422 7.755 17.777L814.875 606c-4.937 3.816-5.212 11.171-.574 15.345l3.484 3.135c7.725 6.953 1.033 19.614-9.063 17.148l-4.553-1.112c-6.061-1.481-11.983 2.89-12.355 9.118l-.279 4.679c-.619 10.374-14.69 13.037-19.057 3.605l-1.969-4.253c-2.621-5.662-9.731-7.567-14.833-3.974l-3.831 2.699c-8.497 5.984-19.352-3.357-14.701-12.652l2.097-4.19c2.793-5.58-.151-12.327-6.141-14.075l-4.498-1.313c-9.977-2.912-9.442-17.223.725-19.382l4.584-.973c6.104-1.296 9.543-7.804 7.176-13.577l-1.779-4.336c-3.943-9.615 7.579-18.119 15.606-11.517l3.619 2.978c4.818 3.964 12.051 2.595 15.088-2.855l2.281-4.094Z"/><path fill="#fff" fill-opacity=".23" d="M904.94 374.253c10.11-3.034 17.42 9.622 9.74 16.857l-19.002 17.896a10.005 10.005 0 0 0-2.875 4.98l-6 25.402c-2.425 10.268-17.039 10.268-19.464 0l-6-25.402a10.005 10.005 0 0 0-2.875-4.98l-18.998-17.896c-7.681-7.235-.374-19.891 9.732-16.857l24.998 7.505c1.875.563 3.875.563 5.751 0l24.993-7.505ZM207.535 156.403c7.68 7.235.373 19.891-9.732 16.857l-24.998-7.505a10.002 10.002 0 0 0-5.751 0l-24.998 7.505c-10.106 3.034-17.413-9.622-9.732-16.857l18.998-17.896a9.996 9.996 0 0 0 2.875-4.981l6-25.401c2.425-10.269 17.039-10.269 19.464 0l6 25.401a10.004 10.004 0 0 0 2.875 4.981l18.999 17.896Z"/><path fill="#fff" d="M693.591 550.405c-102.966 102.966-412.498 74.362-515.898-29.038-103.4-103.399-44.938-254.626 58.028-357.592C338.687 60.808 491.632 10.14 585.413 103.921c103.4 103.4 211.144 343.518 108.178 446.484Z"/><path stroke="#fff" stroke-width="3" d="M676.987 562.155c-65.471 65.471-174.957 92.425-281.42 89.787-106.485-2.639-209.368-34.865-261.594-87.091-52.424-52.424-76.391-105.203-71.084-161.12 5.315-56 40.019-115.517 105.806-181.304 65.791-65.792 161.427-139.09 253.696-182.784C468.528 17.793 513.731 3.39 553.885.97c40.129-2.417 75.097 7.132 101.017 33.052 52.281 52.281 90.665 151.512 99.486 254.244 8.82 102.731-11.964 208.451-77.401 273.888Z"/><path stroke="#fff" stroke-width="3" d="M487.301 53.119c78.237 1.106 160.467 50.401 223.438 114.949 62.992 64.57 106.306 143.981 107.167 204.852.864 61.154-15.714 105.625-51.837 134.594-36.195 29.025-92.283 42.715-170.959 41.603-78.681-1.113-179.878-15.581-261.569-45.08-40.85-14.75-76.724-33.225-102.466-55.588-25.724-22.347-41.235-48.483-41.661-78.639-.862-60.95 34.349-140.718 89.574-205.026C334.207 100.482 409.11 52.013 487.301 53.119Z"/><path fill="#fff" d="M775.891 224.606c5.599 3.069 3.425 11.603-2.886 11.325l-12.902-.567a5.818 5.818 0 0 0-3.286.841l-11.179 6.809c-5.332 3.247-11.513-3.076-8.248-8.437l6.713-11.021c.615-1.01.915-2.19.863-3.388l-.575-13.069c-.28-6.357 8.082-8.593 11.157-2.983l6.448 11.763a6.187 6.187 0 0 0 2.447 2.452l11.448 6.275Z"/></svg>