<svg xmlns="http://www.w3.org/2000/svg" width="1250" height="896" fill="none"><path fill="#fff" fill-opacity=".23" d="M1078.78 110.302c7.33-9.672 22.71-5.553 24.23 6.492l4.68 37.191c.15 1.226.47 2.424.95 3.562l14.54 34.551c4.71 11.189-6.54 22.445-17.73 17.736l-34.55-14.541c-1.14-.479-2.34-.8-3.56-.954l-37.2-4.683c-12.04-1.516-16.16-16.893-6.49-24.228l29.87-22.651c.98-.747 1.86-1.624 2.61-2.607l22.65-29.868Z"/><path fill="#fff" fill-opacity=".34" d="M1057.72 763.648c6.85-12.296 25.58-7.275 25.37 6.799l-.1 6.347c-.12 8.449 7.43 14.952 15.77 13.565l6.26-1.042c13.88-2.309 21.64 15.469 10.5 24.076l-5.02 3.882c-6.69 5.168-7.06 15.129-.78 20.782l4.72 4.246c10.46 9.417 1.4 26.564-12.27 23.224l-6.17-1.506c-8.21-2.005-16.23 3.914-16.73 12.349l-.38 6.337c-.84 14.05-19.9 17.657-25.81 4.883l-2.67-5.76c-3.55-7.669-13.18-10.249-20.09-5.383l-5.18 3.656c-11.51 8.104-26.214-4.547-19.91-17.135l2.84-5.675c3.78-7.557-.21-16.695-8.321-19.062l-6.092-1.779c-13.512-3.944-12.787-23.325.982-26.249l6.211-1.318c8.26-1.755 12.92-10.569 9.72-18.388l-2.41-5.873c-5.34-13.021 10.26-24.539 21.13-15.597l4.9 4.033c6.53 5.368 16.32 3.514 20.44-3.867l3.09-5.545Z"/><path fill="#fff" fill-opacity=".23" d="M1232.48 503.412c13.69-4.109 23.59 13.032 13.19 22.83l-25.74 24.238a13.546 13.546 0 0 0-3.89 6.744l-8.12 34.403c-3.29 13.907-23.08 13.907-26.37 0l-8.12-34.403a13.563 13.563 0 0 0-3.9-6.744l-25.73-24.238c-10.4-9.798-.5-26.939 13.19-22.83l33.85 10.165c2.54.762 5.25.762 7.79 0l33.85-10.165ZM287.955 208.368c10.402 9.799.506 26.939-13.18 22.83l-33.856-10.164a13.538 13.538 0 0 0-7.789 0l-33.856 10.164c-13.687 4.109-23.583-13.031-13.18-22.83l25.73-24.237a13.547 13.547 0 0 0 3.894-6.746l8.126-34.402c3.284-13.908 23.076-13.908 26.36 0l8.126 34.402a13.555 13.555 0 0 0 3.894 6.746l25.731 24.237Z"/><path fill="#fff" d="M971.85 734.662c-142.898 142.897-578.877 96.793-726.294-50.624-147.417-147.419-68.042-359.05 74.856-501.947C463.31 39.193 677.505-29.187 811.21 104.518c147.417 147.417 303.54 487.246 160.64 630.144Z"/><path stroke="#fff" stroke-width="3" d="M925.217 733.306c-85.239 85.24-227.792 120.339-366.426 116.903-138.663-3.436-272.619-45.4-340.61-113.392-68.26-68.261-99.456-136.969-92.547-209.758 6.919-72.9 52.097-150.391 137.763-236.058 85.674-85.674 210.21-181.12 330.358-238.017C653.833 24.533 712.689 5.78 764.966 2.63c52.243-3.148 97.757 9.285 131.491 43.02 68.066 68.065 118.043 197.27 129.533 331.044 11.49 133.772-15.58 271.419-100.773 356.611Z"/><path stroke="#fff" stroke-width="3" d="M665.5 48.171c105.959 1.499 217.327 68.261 302.611 155.681 85.309 87.449 143.979 194.999 145.139 277.439 1.17 82.823-21.28 143.052-70.21 182.286-49.014 39.31-124.976 57.851-231.532 56.345-106.559-1.508-243.615-21.102-354.252-61.054-55.325-19.976-103.91-44.998-138.774-75.285-34.839-30.265-55.846-65.662-56.423-106.504-1.167-82.547 46.52-190.58 121.314-277.675C458.158 112.317 559.602 46.674 665.5 48.171Z"/><path fill="#fff" d="M1056.35 280.423c7.58 4.157 4.64 15.715-3.91 15.338l-17.47-.767a7.866 7.866 0 0 0-4.45 1.138l-15.15 9.222c-7.22 4.398-15.586-4.166-11.16-11.426l9.09-14.927a8.079 8.079 0 0 0 1.16-4.588l-.77-17.7c-.38-8.609 10.94-11.638 15.11-4.04l8.73 15.931a8.399 8.399 0 0 0 3.31 3.321l15.51 8.498Z"/></svg>