<svg xmlns="http://www.w3.org/2000/svg" width="599" height="600" fill="none"><path fill="#fff" fill-opacity=".23" d="M595.535 477.403c7.68 7.235.373 19.891-9.732 16.857l-24.998-7.505a10.002 10.002 0 0 0-5.751 0l-24.998 7.505c-10.106 3.034-17.413-9.622-9.732-16.857l18.998-17.896a9.996 9.996 0 0 0 2.875-4.981l6-25.401c2.425-10.269 17.039-10.269 19.464 0l6 25.401a10.004 10.004 0 0 0 2.875 4.981l18.999 17.896Z"/><path fill="#fff" d="M516.302 337.425c0 102.023-161.375 212.078-263.69 212.078S102 504.703 102 402.68c0-102.023 43.486-261.979 145.8-261.979 102.315 0 268.502 94.701 268.502 196.724Z"/><path stroke="#fff" stroke-width="3" d="M461.863 335.056c0 63.138-38.697 128.99-89.924 179.139-51.25 50.17-114.626 84.221-163.516 84.221-49.171 0-85.068-13.894-108.732-43.341-23.722-29.521-35.38-74.948-35.38-138.523 0-63.58 10.493-145.202 33.302-210.879 11.406-32.842 25.858-61.599 43.538-82.118 17.665-20.502 38.457-32.683 62.62-32.683 48.969 0 113.53 29.335 165.909 74.695 52.371 45.355 92.183 106.398 92.183 169.489Z"/><path stroke="#fff" stroke-width="3" d="M171.923 179.228c37.158-37.159 98.818-53.069 158.685-52.307 59.897.761 117.423 18.202 146.306 47.084 29.082 29.082 42.096 58.46 38.754 89.736-3.352 31.368-23.186 65.005-60.656 102.474-37.472 37.472-91.789 79.367-143.987 104.571-26.103 12.605-51.583 20.99-74.106 22.617-22.5 1.626-41.916-3.493-56.159-17.736-28.938-28.938-49.855-84.396-54.119-142.12-4.263-57.716 8.156-117.193 45.282-154.319Z"/><path fill="#fff" d="M380.052 124.595c6.052-1.817 10.427 5.762 5.828 10.094a5.991 5.991 0 0 0-1.722 2.983c-1.452 6.149-10.203 6.149-11.656 0a5.984 5.984 0 0 0-1.722-2.983c-4.599-4.332-.223-11.911 5.828-10.094a5.992 5.992 0 0 0 3.444 0Z"/><path fill="#fff" fill-opacity=".34" d="M461.471 118.915c4.172-7.486 15.58-4.43 15.449 4.14-.078 5.145 4.523 9.104 9.599 8.26 8.454-1.406 13.177 9.418 6.396 14.659-4.072 3.147-4.299 9.213-.474 12.655 6.371 5.733.852 16.174-7.473 14.14-4.999-1.221-9.883 2.384-10.189 7.52-.511 8.555-12.115 10.751-15.715 2.974-2.162-4.67-8.025-6.241-12.232-3.278-7.007 4.935-15.959-2.768-12.123-10.433 2.303-4.601-.125-10.165-5.064-11.606-8.227-2.402-7.786-14.203.598-15.983 5.033-1.069 7.869-6.435 5.917-11.196-3.252-7.93 6.25-14.942 12.869-9.497 3.973 3.268 9.938 2.14 12.442-2.355Z"/><path fill="#99DEF9" fill-opacity=".31" d="M171.471 386.915c4.172-7.486 15.58-4.43 15.449 4.14-.078 5.145 4.523 9.104 9.599 8.26 8.454-1.406 13.177 9.418 6.396 14.659-4.072 3.147-4.299 9.213-.474 12.655 6.371 5.733.852 16.174-7.473 14.14-4.999-1.221-9.883 2.384-10.189 7.52-.511 8.555-12.115 10.751-15.715 2.974-2.162-4.67-8.025-6.241-12.232-3.278-7.007 4.935-15.959-2.768-12.123-10.433 2.303-4.601-.125-10.165-5.064-11.606-8.227-2.402-7.786-14.203.598-15.983 5.033-1.069 7.869-6.435 5.917-11.196-3.252-7.93 6.25-14.943 12.869-9.498 3.973 3.269 9.938 2.141 12.442-2.354Z"/><path fill="#0093DA" fill-opacity=".1" d="M400.633 274.329c5.928-8.729 19.581-3.518 18.185 6.941l-1.148 8.601a10 10 0 0 0 .911 5.678l3.779 7.811c4.596 9.497-6.744 18.716-15.103 12.278l-6.875-5.295a10.005 10.005 0 0 0-5.373-2.05l-8.654-.633c-10.523-.769-12.836-15.198-3.081-19.219l8.022-3.306a9.998 9.998 0 0 0 4.463-3.628l4.874-7.178Z"/><path fill="#fff" fill-opacity=".23" d="M92.526 121.074c7.68 7.235.373 19.891-9.733 16.857l-8.31-2.495a10.002 10.002 0 0 0-5.751 0l-8.311 2.495c-10.105 3.034-17.412-9.622-9.732-16.857l6.316-5.949a10.005 10.005 0 0 0 2.876-4.981l1.994-8.445c2.425-10.268 17.039-10.268 19.465 0l1.994 8.445a9.998 9.998 0 0 0 2.876 4.981l6.316 5.949Z"/><path fill="#fff" fill-opacity=".34" d="M55.211 423.257c5.06-9.079 18.893-5.372 18.734 5.02l-.07 4.686c-.096 6.239 5.484 11.04 11.64 10.016l4.622-.769c10.252-1.705 15.979 11.422 7.756 17.777l-3.708 2.866c-4.937 3.816-5.213 11.171-.575 15.345l3.484 3.135c7.725 6.953 1.033 19.614-9.063 17.148l-4.552-1.112c-6.062-1.481-11.984 2.89-12.356 9.118l-.279 4.679c-.619 10.374-14.69 13.037-19.057 3.605l-1.969-4.253c-2.621-5.662-9.731-7.567-14.832-3.974l-3.832 2.699c-8.497 5.984-19.352-3.357-14.7-12.652l2.096-4.19c2.793-5.58-.15-12.327-6.14-14.075l-4.5-1.313c-9.976-2.912-9.44-17.223.726-19.382l4.584-.973c6.104-1.296 9.543-7.804 7.176-13.577l-1.779-4.336c-3.943-9.615 7.58-18.119 15.606-11.517l3.619 2.978c4.819 3.964 12.05 2.595 15.088-2.855l2.281-4.094Z"/></svg>