<svg width="74" height="75" viewBox="0 0 74 75" fill="none" xmlns="http://www.w3.org/2000/svg">
<path d="M38.471 4.91516C42.643 -2.57148 54.0504 0.485128 53.9201 9.05472C53.8418 14.1997 58.4427 18.159 63.5185 17.3148C71.9729 15.9087 76.6956 26.7332 69.9144 31.9743C65.8431 35.121 65.6161 41.1867 69.4409 44.6288C75.8115 50.362 70.2931 60.8033 61.9674 58.7693C56.9688 57.5482 52.085 61.1527 51.7785 66.2891C51.268 74.8444 39.6641 77.04 36.0633 69.2625C33.9015 64.5932 28.0384 63.0221 23.8315 65.985C16.8244 70.9201 7.87289 63.2167 11.7085 55.5523C14.0113 50.9509 11.584 45.3874 6.64456 43.9456C-1.58272 41.5442 -1.14114 29.7427 7.24259 27.9628C12.2759 26.8942 15.1122 21.5277 13.1598 16.767C9.90762 8.83739 19.4098 1.82448 26.0285 7.26941C30.0022 10.5384 35.9663 9.40992 38.471 4.91516Z" fill="white" fill-opacity="0.34"/>
</svg>
