<svg xmlns="http://www.w3.org/2000/svg" width="698" height="512" fill="none"><path fill="#fff" fill-opacity=".23" d="M547.938 39.544c5.416-7.142 16.769-4.1 17.889 4.794l1.825 14.495c.114.904.351 1.789.705 2.63l5.667 13.465c3.477 8.261-4.835 16.573-13.096 13.096l-13.466-5.667a9.993 9.993 0 0 0-2.63-.705l-14.495-1.825c-8.893-1.12-11.935-12.473-4.793-17.89l11.64-8.827a9.99 9.99 0 0 0 1.926-1.925l8.828-11.64Z"/><path fill="#fff" fill-opacity=".34" d="M538.471 401.915c4.172-7.486 15.58-4.43 15.449 4.14-.078 5.145 4.523 9.104 9.599 8.26 8.454-1.406 13.177 9.418 6.396 14.659-4.072 3.147-4.299 9.213-.474 12.655 6.371 5.733.852 16.174-7.473 14.14-4.999-1.221-9.883 2.384-10.189 7.52-.511 8.555-12.115 10.751-15.715 2.974-2.162-4.67-8.025-6.241-12.232-3.278-7.007 4.935-15.959-2.768-12.123-10.433 2.303-4.601-.125-10.165-5.064-11.606-8.227-2.402-7.786-14.203.598-15.983 5.033-1.069 7.869-6.435 5.917-11.196-3.252-7.93 6.25-14.943 12.869-9.498 3.973 3.269 9.938 2.141 12.442-2.354Z"/><path fill="#fff" fill-opacity=".23" d="M627.478 257.217c10.106-3.034 17.412 9.622 9.732 16.856l-6.316 5.95a10.004 10.004 0 0 0-2.875 4.981l-1.995 8.444c-2.425 10.269-17.039 10.269-19.464 0l-1.995-8.444a10.004 10.004 0 0 0-2.875-4.981l-6.316-5.95c-7.68-7.234-.374-19.89 9.732-16.856l8.311 2.495a9.999 9.999 0 0 0 5.75 0l8.311-2.495ZM102.526 82.447c7.68 7.234.373 19.89-9.733 16.856l-8.31-2.495a10 10 0 0 0-5.751 0l-8.31 2.495c-10.106 3.034-17.413-9.622-9.733-16.856l6.316-5.95a10 10 0 0 0 2.876-4.98l1.994-8.445c2.425-10.269 17.04-10.269 19.465 0l1.994 8.445a9.999 9.999 0 0 0 2.876 4.98l6.316 5.95Z"/></svg>